# xmcd
#
# Track frame offsets:
#	150
#	19836
#	34113
#	52723
#	65863
#	81426
#	101729
#	117533
#	136103
#	155481
#
# Disc length: 2255 seconds
#
# Revision: 1
# Processed by: cddbd v1.5.1PL2 Copyright (c) Steve Scherf et al.
# Submitted via: audiograbber 1.83.01
#
DISCID=8508cd0a
DTITLE=Debbi Walton - Still your Fool
DYEAR=2004
DGENRE=Soulful Blues
TTITLE0=Know Love
TTITLE1=Can't Find Nobody
TTITLE2=Still Your Fool
TTITLE3=Let Me In
TTITLE4=Right Next To You
TTITLE5=How's About It?
TTITLE6=What Is Wrong
TTITLE7=Thinking It'll Never Rain
TTITLE8=Draggin' In
TTITLE9=No One Left
EXTD=www.debbiewalton.com
EXTT0=
EXTT1=
EXTT2=
EXTT3=
EXTT4=
EXTT5=
EXTT6=
EXTT7=
EXTT8=
EXTT9=
PLAYORDER=
